<svg xmlns="http://www.w3.org/2000/svg" xmlns:xlink="http://www.w3.org/1999/xlink" width="28" height="28" viewBox="0 0 192 192"><defs><path id="a" d="M179.2 96H140V52L99.4 11.4a2 2 0 00-3.4 1.4V52H52L11.4 92.6a2 2 0 00-.6 1.4c0 1.1 1 2 2 2H52v44l40.6 40.6a2 2 0 003.4-1.4V140h44l40.6-40.6c.3-.4.6-.8.6-1.4a2 2 0 00-2-2z"/></defs><clipPath id="b"><use overflow="visible" xlink:href="#a"/></clipPath><path fill="#4285F4" d="M179.2 96a2 2 0 011.4 3.4L140 140 96 96h83.2z" clip-path="url(#b)"/><g clip-path="url(#b)"><path fill="#3367D6" d="M96 96v44h44z"/></g><path fill="#1A237E" fill-opacity=".1" d="M96 96h-1l44 44h1z" clip-path="url(#b)"/><path fill="#8BC34A" d="M96 179.2a2 2 0 01-3.4 1.4L52 140l44-44v83.2z" clip-path="url(#b)"/><g clip-path="url(#b)"><path fill="#0F9D58" d="M96 96H52v44z"/></g><g clip-path="url(#b)"><path fill="#FFC107" d="M12.8 96a2 2 0 01-1.4-3.4L52 52l44 44H12.8z"/></g><path fill="#263238" fill-opacity=".1" d="M52 139v1l44-44v-1z" clip-path="url(#b)"/><g clip-path="url(#b)"><path fill="#FF9800" d="M96 96V52H52z"/></g><path fill="#BF360C" fill-opacity=".1" d="M53 52h-1l44 44h1z" clip-path="url(#b)"/><path fill="#DB4437" d="M96 12.8a2 2 0 013.4-1.4L140 52 96 96V12.8z" clip-path="url(#b)"/><path fill="#AD1457" d="M96 96h44V52z" clip-path="url(#b)"/><path fill="#fff" fill-opacity=".1" d="M96 95v1l44-44v-1z" clip-path="url(#b)"/><path fill="#BF360C" fill-opacity=".1" d="M12.8 95a2 2 0 01-1.9-1.5v.5c0 1.1.8 2 2 2H96l-1-1H12.8z" clip-path="url(#b)"/><path fill="#F5F5F5" d="M92 92l4-12 4 12 12 4-12 4-4 12-4-12-12-4z" clip-path="url(#b)"/><path fill="#fff" fill-opacity=".2" d="M52 52L11.4 92.6a2 2 0 00-.5 1.9c0-.3.2-.7.5-.9L52 53h44v-1H52zm46-40.2c.6 0 1 .2 1.4.6l40.1 40.1.5-.5-40.6-40.6a2 2 0 00-3.4 1.4v1c0-1 .9-2 2-2z" clip-path="url(#b)"/><path fill="#fff" fill-opacity=".1" d="M181.1 98.5V98a2 2 0 00-2-2H96l1 1h82.2c.9 0 1.7.6 1.9 1.5z" clip-path="url(#b)"/><path fill="#004D40" fill-opacity=".1" d="M94 180.2a2 2 0 01-1.4-.6l-40.1-40.1-.5.5 40.6 40.6a2 2 0 003.4-1.4v-1a2 2 0 01-2 2z" clip-path="url(#b)"/><path fill="#1A237E" fill-opacity=".1" d="M180.6 98.4L140 139H96v1h44l40.6-40.6a2 2 0 00.5-1.9c0 .3-.3.7-.5.9z" clip-path="url(#b)"/><radialGradient id="c" cx="51.8" cy="51.8" r="137.7" gradientUnits="userSpaceOnUse"><stop offset="0" stop-color="#fff" stop-opacity=".1"/><stop offset="1" stop-color="#fff" stop-opacity="0"/></radialGradient><path fill="url(#c)" d="M179.2 96H140V52L99.4 11.4a2 2 0 00-3.4 1.4V52H52L11.4 92.6a2 2 0 00-.6 1.4c0 1.1 1 2 2 2H52v44l40.6 40.6a2 2 0 003.4-1.4V140h44l40.6-40.6c.3-.4.6-.8.6-1.4a2 2 0 00-2-2z"/><path fill="none" d="M0 0h192v192H0z"/></svg>
